<?xml version="1.0" encoding="UTF-8" standalone="no"?>
<!-- Created with Inkscape (http://www.inkscape.org/) -->

<svg
   xmlns:dc="http://purl.org/dc/elements/1.1/"
   xmlns:cc="http://creativecommons.org/ns#"
   xmlns:rdf="http://www.w3.org/1999/02/22-rdf-syntax-ns#"
   xmlns:svg="http://www.w3.org/2000/svg"
   xmlns="http://www.w3.org/2000/svg"
   xmlns:sodipodi="http://sodipodi.sourceforge.net/DTD/sodipodi-0.dtd"
   xmlns:inkscape="http://www.inkscape.org/namespaces/inkscape"
   width="70.14518mm"
   height="185.64131mm"
   viewBox="0 0 70.14518 185.64131"
   version="1.1"
   id="svg845"
   inkscape:version="0.92.4 (5da689c313, 2019-01-14)"
   sodipodi:docname="baby_bottle.svg">
  <defs
     id="defs839" />
  <sodipodi:namedview
     id="base"
     pagecolor="#ffffff"
     bordercolor="#666666"
     borderopacity="1.0"
     inkscape:pageopacity="0.0"
     inkscape:pageshadow="2"
     inkscape:zoom="0.35"
     inkscape:cx="-627.44217"
     inkscape:cy="195.10397"
     inkscape:document-units="mm"
     inkscape:current-layer="layer1"
     showgrid="false"
     inkscape:window-width="1920"
     inkscape:window-height="986"
     inkscape:window-x="-11"
     inkscape:window-y="-11"
     inkscape:window-maximized="1"
     fit-margin-top="0"
     fit-margin-left="0"
     fit-margin-right="0"
     fit-margin-bottom="0" />
  <metadata
     id="metadata842">
    <rdf:RDF>
      <cc:Work
         rdf:about="">
        <dc:format>image/svg+xml</dc:format>
        <dc:type
           rdf:resource="http://purl.org/dc/dcmitype/StillImage" />
        <dc:title></dc:title>
      </cc:Work>
    </rdf:RDF>
  </metadata>
  <g
     inkscape:label="Layer 1"
     inkscape:groupmode="layer"
     id="layer1"
     transform="translate(-145.60003,-14.813278)">
    <path
       style="fill:#000000;fill-opacity:0.1254902;stroke-width:0.16489206"
       d="m 157.79911,225.92972 c -6.41123,-1.22139 -10.00895,-6.41261 -9.01013,-11.23479 0.0893,-31.67978 -0.22332,-63.36339 0.22777,-95.04016 1.18274,-7.03289 1.51166,-14.48641 5.71432,-20.919457 1.90926,-1.33939 11.43814,-2.37958 3.5991,-2.65262 -5.37088,-4.828168 -3.26898,-12.38325 -2.38282,-18.097794 1.63058,-2.996872 8.97987,-0.928528 6.29563,-6.065908 0.64061,-4.588818 5.43896,-8.125263 9.73442,-10.675719 1.87275,-1.723177 3.6893,-2.850992 4.71385,-4.658508 2.40585,-5.347055 -5.74418,-15.291888 6.55437,-15.750189 6.58084,-1.615142 14.92717,3.170686 11.04712,8.360164 -3.16792,3.7591 -2.14348,9.148895 2.37931,11.819716 5.21826,3.687756 11.45262,7.033338 9.26498,13.297099 -1.25856,2.735427 8.76505,1.177284 6.36855,5.997358 -0.16724,4.555618 0.33625,9.23966 -0.19358,13.738761 -1.0118,3.26991 -10.78711,1.33657 -2.24747,3.91014 7.23345,3.653737 6.29522,12.289897 8.12355,18.401107 1.41114,16.59279 0.42305,33.26489 0.69415,49.89085 -0.19465,17.77082 0.32819,35.56495 -0.41096,53.32075 -3.0067,7.86068 -14.91556,6.52407 -23.14385,6.4657 -12.43949,-0.1134 -24.9025,0.38829 -37.32831,-0.10655 z m 1.54862,-129.502727 c 1.03369,-0.23509 0.1876,0.25352 0,0 z m -4.01795,-3.31422 c -0.19887,-0.97765 0.59478,0.79194 0,0 z m -0.23767,-1.16461 c 0.27093,-0.385762 0.0838,0.62451 0,0 z m -0.16592,-0.857011 c 0.20459,-0.687893 0.11011,0.872481 0,0 z m -0.16807,-2.534821 c 0.13848,-1.419012 0.13848,1.419006 0,0 z m -0.2004,-2.752095 c 0.15096,-0.906504 0.15096,0.90651 0,0 z m 0.2004,-2.75209 c 0.13848,-1.41902 0.13848,1.419006 0,0 z m 0.16807,-2.534824 c 0.20459,-0.687902 0.11011,0.872479 0,0 z m 0.16592,-0.881157 c 0.27093,-0.385768 0.0838,0.624498 0,0 z m 5.19417,-4.076004 c 2.70866,-0.205623 0.53675,0.207191 0,0 z m 1.41459,-2.140351 c 0.1652,-1.201267 0.1171,1.382579 0,0 z m 0.17063,-1.30362 c 0.20458,-0.687903 0.11011,0.872479 0,0 z m 44.65345,-1.170852 c 0.27092,-0.385768 0.0838,0.624496 0,0 z m -43.7515,-1.789971 c 0.32897,-0.761832 0.29179,0.532284 0,0 z m 14.29568,-14.78295 c 0.16427,-0.652888 0.16427,0.652883 0,0 z m 15.59771,-0.50697 c 0.17898,-0.945682 0.11579,1.125555 0,0 z M 177.2638,53.430906 c 0.20459,-0.687885 0.11011,0.872477 0,0 z m 0,-1.013927 c 0.20459,-0.687892 0.11011,0.872477 0,0 z m -0.20948,-0.881155 c 0.27092,-0.385762 0.0838,0.624497 0,0 z m -1.77489,-3.614704 c -0.51838,-1.292805 0.68362,0.740141 0,0 z m 20.17055,-1.599791 c 0.27093,-0.385763 0.0838,0.624498 0,0 z M 175.1772,45.886788 c 0.27092,-0.385764 0.0838,0.624497 0,0 z"
       id="path22"
       inkscape:connector-curvature="0" />
  </g>
</svg>
