<?xml version="1.0" encoding="UTF-8" standalone="no"?>
<!-- Created with Inkscape (http://www.inkscape.org/) -->

<svg
   xmlns:dc="http://purl.org/dc/elements/1.1/"
   xmlns:cc="http://creativecommons.org/ns#"
   xmlns:rdf="http://www.w3.org/1999/02/22-rdf-syntax-ns#"
   xmlns:svg="http://www.w3.org/2000/svg"
   xmlns="http://www.w3.org/2000/svg"
   xmlns:sodipodi="http://sodipodi.sourceforge.net/DTD/sodipodi-0.dtd"
   xmlns:inkscape="http://www.inkscape.org/namespaces/inkscape"
   width="686.15942"
   height="193.39149"
   viewBox="0 0 181.54634 51.16817"
   version="1.1"
   id="svg8"
   inkscape:version="0.92.4 (5da689c313, 2019-01-14)"
   sodipodi:docname="banner.svg">
  <defs
     id="defs2">
    <inkscape:path-effect
       effect="simplify"
       id="path-effect858"
       is_visible="true"
       steps="1"
       threshold="0.00378378"
       smooth_angles="360"
       helper_size="0"
       simplify_individual_paths="false"
       simplify_just_coalesce="false"
       simplifyindividualpaths="false"
       simplifyJustCoalesce="false" />
  </defs>
  <sodipodi:namedview
     id="base"
     pagecolor="#ffffff"
     bordercolor="#666666"
     borderopacity="1.0"
     inkscape:pageopacity="0.0"
     inkscape:pageshadow="2"
     inkscape:zoom="1.979899"
     inkscape:cx="370.63214"
     inkscape:cy="12.942761"
     inkscape:document-units="mm"
     inkscape:current-layer="text12"
     showgrid="false"
     units="px"
     inkscape:pagecheckerboard="true"
     fit-margin-top="0"
     fit-margin-left="0"
     fit-margin-right="0"
     fit-margin-bottom="0"
     inkscape:window-width="1920"
     inkscape:window-height="986"
     inkscape:window-x="-11"
     inkscape:window-y="-11"
     inkscape:window-maximized="1" />
  <metadata
     id="metadata5">
    <rdf:RDF>
      <cc:Work
         rdf:about="">
        <dc:format>image/svg+xml</dc:format>
        <dc:type
           rdf:resource="http://purl.org/dc/dcmitype/StillImage" />
        <dc:title />
      </cc:Work>
    </rdf:RDF>
  </metadata>
  <g
     inkscape:label="Layer 1"
     inkscape:groupmode="layer"
     id="layer1"
     transform="translate(-73.73188,-239.68924)">
    <g
       id="g6563">
      <g
         id="text12"
         style="font-style:normal;font-variant:normal;font-weight:normal;font-stretch:normal;font-size:50.79999924px;line-height:18.20000076;font-family:'Ink Free';-inkscape-font-specification:'Ink Free';letter-spacing:0px;word-spacing:0px;fill:#e67235;fill-opacity:1;stroke:#ffffff;stroke-width:1.27201903;stroke-opacity:1"
         transform="translate(-1.8938148,-3.4260642)"
         aria-label="Holihire">
        <path
           sodipodi:nodetypes="ccccscccccccccsccccsccccccccccsccccccccscccccccccccccscccccccccccc"
           inkscape:connector-curvature="0"
           id="path824"
           style="font-style:normal;font-variant:normal;font-weight:normal;font-stretch:normal;font-size:50.79999924px;line-height:18.20000076;font-family:'Ink Free';-inkscape-font-specification:'Ink Free';fill:#e67235;fill-opacity:1;stroke:#ffffff;stroke-opacity:1"
           d="m 110.1367,265.85361 c 0.12905,0.52627 -0.15646,0.99729 -0.85653,1.41304 -0.54367,0.34253 -1.23504,0.65153 -2.07411,0.92702 -0.81424,0.23452 -1.35293,0.38404 -1.61607,0.44857 0.21713,1.02773 0.4296,2.17864 0.63741,3.45274 0.20781,1.2741 0.37963,2.33037 0.51548,3.16881 l 0.22703,1.56578 0.28846,1.60303 0.63551,3.87165 c 0.27976,1.70977 -0.0573,2.6816 -1.01117,2.91549 -0.36181,0.0887 -0.82848,-0.25016 -1.39999,-1.01664 -0.53056,-0.74166 -0.86036,-1.37563 -0.9894,-1.9019 -0.0323,-0.13157 0.0348,-0.42697 0.20114,-0.8862 0.16635,-0.45923 0.20983,-0.99294 0.13044,-1.60113 -0.0943,-0.95325 -0.32128,-2.51903 -0.68107,-4.69735 -0.35979,-2.17833 -0.68422,-3.99919 -0.97331,-5.46258 -1.25861,0.41323 -2.60379,0.89999 -4.035545,1.46028 -0.641715,0.22709 -2.085574,0.73805 -4.331575,1.53287 -2.246002,0.79481 -4.018783,1.38642 -5.318343,1.77482 0.400743,2.20315 0.901987,4.88728 1.503732,8.05237 0.601745,3.16509 0.987304,5.09301 1.156675,5.78374 0.06452,0.26314 0.182098,0.60044 0.352735,1.01191 0.203526,0.40341 0.333518,0.72023 0.389975,0.95048 0.07259,0.29603 -0.08507,0.64851 -0.472973,1.05746 -0.355012,0.40088 -0.664087,0.63358 -0.927225,0.6981 -0.328923,0.0806 -0.660932,-0.0646 -0.996027,-0.43573 -0.302203,-0.37921 -0.521859,-0.84839 -0.65897,-1.40756 -0.07259,-0.29603 -0.160676,-0.79748 -0.264263,-1.50435 -0.09552,-0.67398 -0.187327,-1.26169 -0.275415,-1.76314 -0.0862,-0.92035 -0.181401,-1.66415 -0.28562,-2.23138 -0.311393,-1.98097 -0.639548,-3.88809 -0.984464,-5.72136 -0.344917,-1.83327 -0.577549,-3.06642 -0.697898,-3.69944 -1.983495,0.86993 -3.896226,1.53073 -5.738193,1.98239 -0.624953,0.15324 -1.187523,0.13427 -1.687711,-0.0569 -0.541145,-0.21601 -0.884305,-0.62004 -1.029481,-1.21211 -0.104849,-0.42759 -0.06635,-0.7683 0.115507,-1.02211 0.140896,-0.27864 0.540267,-0.49861 1.198112,-0.65992 l 2.627034,-0.59185 c 1.726529,-0.35361 3.116069,-0.65947 4.168622,-0.91756 -0.521092,-2.83617 -0.987304,-5.093 -1.398636,-6.77051 -0.935578,-3.81551 -1.807265,-7.22824 -2.61506,-10.23819 l -0.447625,-1.82553 c -0.12098,-0.49338 -0.03686,-0.93245 0.25237,-1.3172 0.314054,-0.42571 0.717773,-0.69905 1.211157,-0.82003 0.361815,-0.0887 0.677063,0.13038 0.945742,0.65729 0.26868,0.52691 0.487706,1.13573 0.657078,1.82647 0.177437,0.72363 0.458146,2.22394 0.842127,4.50094 0.738225,3.8639 1.135566,5.91097 1.192023,6.14121 l 1.483322,7.11589 c 2.74682,-0.74327 7.329118,-2.32018 13.746893,-4.73073 -0.10232,-0.98614 -0.48504,-3.54241 -1.14815,-7.66881 -0.39268,-2.17026 -0.66066,-3.76087 -0.80394,-4.77184 l -0.64762,-3.92098 c -0.758002,-4.94001 -0.557936,-2.93206 -0.856354,-4.14907 -0.104849,-0.4276 -0.02507,-0.8133 0.239326,-1.15709 0.2644,-0.34379 0.610408,-0.56811 1.038008,-0.67296 0.59206,-0.14518 1.02923,0.35785 1.31152,1.50908 0.17743,0.72363 -0.17667,-2.13104 0.26062,1.07438 0.63829,4.16736 0.93062,6.21805 1.01064,6.6866 0.42368,2.5811 0.81913,5.04707 1.18635,7.39792 0.40011,2.34279 0.66405,3.91695 0.79184,4.7225 0.56787,-0.24385 1.05785,-0.52091 1.46995,-0.83118 0.54367,-0.34253 0.97996,-0.55413 1.30888,-0.63478 0.32893,-0.0807 0.75558,0.0239 1.27996,0.31381 0.52439,0.28986 0.80674,0.51702 0.84707,0.68148 z" />
        <path
           id="path826"
           style="font-style:normal;font-variant:normal;font-weight:normal;font-stretch:normal;font-size:50.79999924px;line-height:18.20000076;font-family:'Ink Free';-inkscape-font-specification:'Ink Free';fill:#e67235;fill-opacity:1;stroke:#ffffff;stroke-opacity:1"
           d="m 136.54665,267.74387 q -0.0137,1.98115 -1.5049,4.56167 -1.49114,2.58051 -4.19652,4.44138 -2.70503,1.81007 -6.15935,1.78609 -3.40352,-0.0236 -5.01603,-1.91445 -1.61252,-1.89084 -1.59313,-4.68477 0.0169,-2.43835 0.90554,-6.03906 0.93941,-3.60037 2.58471,-6.43382 0.10301,-0.20249 0.82301,-1.46752 0.77115,-1.31548 1.69011,-1.96952 0.91931,-0.70484 1.93529,-0.69779 0.45719,0.003 0.81101,0.25964 0.40498,0.20601 0.40252,0.5616 -7.1e-4,0.1016 -0.30832,0.50588 -0.25646,0.35383 -0.41027,0.55596 -1.74161,2.07077 -2.82249,4.09531 -1.44035,2.58087 -2.27076,5.11517 -0.77961,2.53465 -0.80041,5.53177 -0.0279,4.01311 4.84883,4.04695 2.28595,0.0159 4.22547,-1.2915 1.99032,-1.30702 3.17173,-3.17846 1.18177,-1.92225 1.1927,-3.49701 0.0123,-1.77796 -1.14686,-3.10684 -1.15921,-1.32887 -3.18094,-2.81614 -1.31406,-0.97434 -1.91942,-1.58816 -0.60535,-0.61382 -0.60253,-1.02021 0.004,-0.60958 0.87028,-0.95918 0.86639,-0.4004 2.03477,-0.39229 0.66038,0.005 0.86287,0.10759 0.20284,0.0522 0.20143,0.25541 -7e-4,0.1016 -0.20566,0.35418 -0.15381,0.20214 -0.15486,0.35453 -0.001,0.1524 1.00892,1.02303 2.02032,1.69046 3.3799,3.42714 1.35958,1.73668 1.34336,4.07342 z" />
        <path
           id="path828"
           style="font-style:normal;font-variant:normal;font-weight:normal;font-stretch:normal;font-size:50.79999924px;line-height:18.20000076;font-family:'Ink Free';-inkscape-font-specification:'Ink Free';fill:#e67235;fill-opacity:1;stroke:#ffffff;stroke-opacity:1"
           d="m 145.60266,279.00644 q -0.0921,0.49958 -0.79686,0.67955 -0.70472,0.17997 -1.50404,0.0326 -0.5995,-0.11056 -0.89106,-1.61072 -0.23239,-1.5409 0.30198,-4.43844 1.09106,-5.63598 2.6651,-13.61076 1.624,-7.96557 2.47019,-11.9937 0.31714,-1.43956 0.99709,-2.60558 0.7299,-1.1568 1.92889,-0.93569 0.39966,0.0737 0.41665,0.54176 0.0762,0.4273 -0.14495,1.62628 -0.009,0.0499 -0.11445,0.34049 -0.0461,0.24978 -0.17505,0.94919 -3.32233,12.97299 -5.62565,25.46238 -0.29482,1.59864 0.0729,3.5261 0.41768,1.93667 0.39925,2.03658 z" />
        <path
           id="path830"
           style="font-style:normal;font-variant:normal;font-weight:normal;font-stretch:normal;font-size:50.79999924px;line-height:18.20000076;font-family:'Ink Free';-inkscape-font-specification:'Ink Free';fill:#e67235;fill-opacity:1;stroke:#ffffff;stroke-opacity:1"
           d="m 161.28995,251.45028 q -0.18261,0.7398 -1.81016,0.33805 -0.83844,-0.20695 -1.55575,-1.11656 -0.668,-0.89744 -0.55844,-1.34131 0.13392,-0.54252 0.74886,-0.91398 0.66425,-0.35928 1.20677,-0.22537 0,0 0.30871,0.23318 0.37021,0.19603 0.7295,0.86029 0.29716,0.49195 0.6321,1.25485 0.33493,0.76289 0.29841,0.91085 z m -6.42447,31.32645 q -0.12174,0.49319 -0.62649,0.63022 -0.4676,0.19853 -0.99794,0.0153 -0.6783,-0.21976 -0.48788,-2.47504 0.23974,-2.24312 1.3919,-8.39466 0.78882,-4.04359 1.57826,-7.87773 0.80161,-3.88346 1.2636,-5.96706 0.13392,-0.54252 0.34275,-0.75259 0.27032,-0.24722 0.76352,-0.12548 1.13435,0.28 1.19896,1.29012 0.0646,1.01012 -0.59278,3.67338 l -1.48586,5.80755 q -1.22957,4.98129 -1.67627,8.06284 -0.0365,0.14796 -0.33526,3.26602 -0.16607,2.15665 -0.33651,2.84713 z" />
        <path
           id="path832"
           style="font-style:normal;font-variant:normal;font-weight:normal;font-stretch:normal;font-size:50.79999924px;line-height:18.20000076;font-family:'Ink Free';-inkscape-font-specification:'Ink Free';fill:#e67235;fill-opacity:1;stroke:#ffffff;stroke-opacity:1"
           d="m 182.75781,289.36364 q -0.11024,0.59955 -0.58343,0.92577 -0.48237,0.37617 -1.13189,0.25675 -0.49962,-0.0919 -0.80343,-0.40598 -0.31299,-0.26415 -0.2395,-0.66385 l 0.73377,-3.42904 q 1.3797,-6.09946 2.09622,-9.99654 1.04722,-5.69573 0.6612,-8.09102 -0.37684,-2.44526 -1.42606,-2.63817 -2.34823,-0.43174 -7.23675,6.21057 -4.87933,6.59235 -9.75687,14.57962 -0.37842,0.65355 -0.9475,1.22039 -0.51912,0.57602 -0.96879,0.49334 -1.09917,-0.20209 -0.97057,-0.90157 0.56036,-3.04771 1.84463,-11.43739 1.29346,-8.43963 1.63044,-11.1152 1.19465,-9.02597 1.18077,-11.19789 -0.0139,-2.17191 0.0137,-2.3218 0.0919,-0.49963 0.68738,-0.64839 0.59552,-0.14877 1.44489,0.007 0.69947,0.1286 0.41133,3.38132 -0.22899,3.21194 -0.98852,8.18579 l -0.20725,1.40814 q -0.18485,1.56721 -1.48525,8.92089 -1.29121,7.30372 -1.92505,10.75113 3.35468,-5.32313 6.17993,-9.45231 2.87522,-4.12 6.23975,-7.53021 3.37372,-3.46018 5.62203,-3.0468 1.89858,0.34907 2.60969,3.78552 0.7203,3.38647 -0.43715,9.68175 -0.51442,2.79791 -1.33311,7.81253 z" />
        <path
           id="path834"
           style="font-style:normal;font-variant:normal;font-weight:normal;font-stretch:normal;font-size:50.79999924px;line-height:18.20000076;font-family:'Ink Free';-inkscape-font-specification:'Ink Free';fill:#e67235;fill-opacity:1;stroke:#ffffff;stroke-opacity:1"
           d="m 191.93935,256.91859 q 0.0134,0.76188 -1.66273,0.79138 -0.86346,0.0152 -1.79024,-0.6798 -0.87598,-0.69589 -0.88403,-1.15302 -0.01,-0.55871 0.48915,-1.07557 0.54977,-0.51776 1.10849,-0.52759 0,0 0.35823,0.14612 0.40812,0.0944 0.92588,0.6442 0.41348,0.39919 0.93303,1.05055 0.51954,0.65135 0.52222,0.80373 z m 1.83212,31.9259 q 0.009,0.50792 -0.44372,0.76993 -0.40097,0.3119 -0.96058,0.27095 -0.71198,-0.0383 -1.10686,-2.26688 -0.34409,-2.22949 -0.8096,-8.47066 -0.27558,-4.11059 -0.49679,-8.0189 -0.22211,-3.9591 -0.31045,-6.09148 -0.01,-0.55871 0.13808,-0.81536 0.1978,-0.30832 0.70572,-0.31726 1.16822,-0.0206 1.48996,0.93912 0.32174,0.95969 0.37001,3.70246 l 0.0547,5.99437 q 0.0903,5.13 0.44958,8.22296 0.003,0.15238 0.51434,3.24265 0.39309,2.12701 0.40561,2.8381 z" />
        <path
           id="path836"
           style="font-style:normal;font-variant:normal;font-weight:normal;font-stretch:normal;font-size:50.79999924px;line-height:18.20000076;font-family:'Ink Free';-inkscape-font-specification:'Ink Free';fill:#e67235;fill-opacity:1;stroke:#ffffff;stroke-opacity:1"
           d="m 214.83429,265.17359 q 0.0582,0.45348 -0.51919,1.14221 -0.53348,0.63187 -0.98696,0.69009 -0.35271,0.0453 -0.74422,-0.21177 -0.34113,-0.26351 -0.81538,-0.76601 -0.41738,-0.45859 -1.0673,-0.73367 -0.59953,-0.28156 -1.20417,-0.20394 -1.46121,0.18759 -3.43208,4.3843 -1.97735,4.14632 -3.59518,10.29517 0.19915,1.15242 0.52632,2.90301 0.37755,1.74412 0.5379,2.59423 l 0.40989,1.99605 q 0.0906,0.70541 -0.14708,1.24809 -0.23116,0.59306 -1.03735,0.69655 -0.85657,0.10997 -1.39958,-2.12509 -0.54947,-2.28543 -1.16261,-6.66259 -0.19269,-1.10204 -0.50827,-3.16141 -0.26521,-2.06585 -0.73468,-4.92495 -0.70743,-4.31383 -0.94676,-6.17813 -0.14878,-1.15889 1.26205,-1.34001 0.85657,-0.10996 1.10475,0.62644 0.29211,0.67953 0.55731,2.74538 l 1.02847,8.01146 q 1.01353,-4.07382 2.41483,-7.12185 1.4013,-3.04804 2.87647,-4.7227 1.51909,-1.73152 2.82914,-1.8997 1.1085,-0.1423 2.18092,0.23219 1.07241,0.3745 1.78054,1.10307 0.70167,0.67817 0.79222,1.38358 z" />
        <path
           id="path838"
           style="font-style:normal;font-variant:normal;font-weight:normal;font-stretch:normal;font-size:50.79999924px;line-height:18.20000076;font-family:'Ink Free';-inkscape-font-specification:'Ink Free';fill:#e67235;fill-opacity:1;stroke:#ffffff;stroke-opacity:1"
           d="m 235.51838,267.48447 q 0.33893,-0.10762 0.56953,0.61865 0.27672,0.87153 -0.0928,4.2401 -0.3211,3.35321 -2.13627,6.7011 -1.76674,3.33252 -5.54335,4.53163 -3.09875,0.98389 -5.79565,-0.29179 -2.69691,-1.27567 -3.97288,-5.29436 -1.19912,-3.77661 -0.62444,-8.00981 0.55931,-4.28162 2.62964,-7.49734 2.05496,-3.26413 5.05687,-4.21727 1.79147,-0.56881 3.26326,-0.13003 1.50484,0.37498 1.98142,1.87594 0.53806,1.69463 -0.89134,3.90735 -1.38099,2.19735 -4.04699,4.37632 -2.66601,2.17896 -5.74091,3.74157 0.12616,2.41171 0.80258,4.5421 0.89165,2.80824 2.69088,3.94254 1.84764,1.11893 4.31696,0.33489 3.72819,-1.18374 5.20673,-4.58464 1.47853,-3.40091 1.96715,-7.2337 0.0353,-0.22442 0.10833,-0.83388 0.0576,-0.65788 0.25128,-0.71937 z m -6.67438,-6.24879 q -0.24597,-0.77468 -1.20744,-0.9491 -0.91304,-0.18979 -1.97824,0.14842 -1.83988,0.58418 -3.15018,2.3327 -1.3103,1.74851 -1.93427,3.8121 -0.57555,2.04821 -0.4994,3.46311 2.15036,-0.94926 4.29684,-2.75007 2.14648,-1.80081 3.40836,-3.53395 1.3103,-1.74852 1.06433,-2.52321 z" />
        <path
           d="m 110.1367,265.85361 c 0.12905,0.52627 -0.15646,0.99729 -0.85653,1.41304 -0.54367,0.34253 -1.23504,0.65153 -2.07411,0.92702 -0.81424,0.23452 -1.35293,0.38404 -1.61607,0.44857 0.21713,1.02773 0.4296,2.17864 0.63741,3.45274 0.20781,1.2741 0.37963,2.33037 0.51548,3.16881 l 0.22703,1.56578 0.28846,1.60303 0.63551,3.87165 c 0.27976,1.70977 -0.0573,2.6816 -1.01117,2.91549 -0.36181,0.0887 -0.82848,-0.25016 -1.39999,-1.01664 -0.53056,-0.74166 -0.86036,-1.37563 -0.9894,-1.9019 -0.0323,-0.13157 0.0348,-0.42697 0.20114,-0.8862 0.16635,-0.45923 0.20983,-0.99294 0.13044,-1.60113 -0.0943,-0.95325 -0.32128,-2.51903 -0.68107,-4.69735 -0.35979,-2.17833 -0.68422,-3.99919 -0.97331,-5.46258 -1.25861,0.41323 -2.60379,0.89999 -4.035545,1.46028 -0.641715,0.22709 -2.085574,0.73805 -4.331575,1.53287 -2.246002,0.79481 -4.018783,1.38642 -5.318343,1.77482 0.400743,2.20315 0.901987,4.88728 1.503732,8.05237 0.601745,3.16509 0.987304,5.09301 1.156675,5.78374 0.06452,0.26314 0.182098,0.60044 0.352735,1.01191 0.203526,0.40341 0.333518,0.72023 0.389975,0.95048 0.07259,0.29603 -0.08507,0.64851 -0.472973,1.05746 -0.355012,0.40088 -0.664087,0.63358 -0.927225,0.6981 -0.328923,0.0806 -0.660932,-0.0646 -0.996027,-0.43573 -0.302203,-0.37921 -0.521859,-0.84839 -0.65897,-1.40756 -0.07259,-0.29603 -0.160676,-0.79748 -0.264263,-1.50435 -0.09552,-0.67398 -0.187327,-1.26169 -0.275415,-1.76314 -0.0862,-0.92035 -0.181401,-1.66415 -0.28562,-2.23138 -0.311393,-1.98097 -0.639548,-3.88809 -0.984464,-5.72136 -0.344917,-1.83327 -0.577549,-3.06642 -0.697898,-3.69944 -1.983495,0.86993 -3.896226,1.53073 -5.738193,1.98239 -0.624953,0.15324 -1.187523,0.13427 -1.687711,-0.0569 -0.541145,-0.21601 -0.884305,-0.62004 -1.029481,-1.21211 -0.104849,-0.42759 -0.06635,-0.7683 0.115507,-1.02211 0.140896,-0.27864 0.540267,-0.49861 1.198112,-0.65992 l 2.627034,-0.59185 c 1.726529,-0.35361 3.116069,-0.65947 4.168622,-0.91756 -0.521092,-2.83617 -0.987304,-5.093 -1.398636,-6.77051 -0.935578,-3.81551 -1.807265,-7.22824 -2.61506,-10.23819 l -0.447625,-1.82553 c -0.12098,-0.49338 -0.03686,-0.93245 0.25237,-1.3172 0.314054,-0.42571 0.717773,-0.69905 1.211157,-0.82003 0.361815,-0.0887 0.677063,0.13038 0.945742,0.65729 0.26868,0.52691 0.487706,1.13573 0.657078,1.82647 0.177437,0.72363 0.458146,2.22394 0.842127,4.50094 0.738225,3.8639 1.135566,5.91097 1.192023,6.14121 l 1.483322,7.11589 c 2.74682,-0.74327 7.329118,-2.32018 13.746893,-4.73073 -0.10232,-0.98614 -0.48504,-3.54241 -1.14815,-7.66881 -0.39268,-2.17026 -0.66066,-3.76087 -0.80394,-4.77184 l -0.64762,-3.92098 c -0.758002,-4.94001 -0.557936,-2.93206 -0.856354,-4.14907 -0.104849,-0.4276 -0.02507,-0.8133 0.239326,-1.15709 0.2644,-0.34379 0.610408,-0.56811 1.038008,-0.67296 0.59206,-0.14518 1.02923,0.35785 1.31152,1.50908 0.17743,0.72363 -0.17667,-2.13104 0.26062,1.07438 0.63829,4.16736 0.93062,6.21805 1.01064,6.6866 0.42368,2.5811 0.81913,5.04707 1.18635,7.39792 0.40011,2.34279 0.66405,3.91695 0.79184,4.7225 0.56787,-0.24385 1.05785,-0.52091 1.46995,-0.83118 0.54367,-0.34253 0.97996,-0.55413 1.30888,-0.63478 0.32893,-0.0807 0.75558,0.0239 1.27996,0.31381 0.52439,0.28986 0.80674,0.51702 0.84707,0.68148 z"
           style="font-style:normal;font-variant:normal;font-weight:normal;font-stretch:normal;font-size:50.79999924px;line-height:18.20000076;font-family:'Ink Free';-inkscape-font-specification:'Ink Free';fill:#e67235;fill-opacity:1;stroke:#ffffff;stroke-opacity:1"
           id="path6528"
           inkscape:connector-curvature="0"
           sodipodi:nodetypes="ccccscccccccccsccccsccccccccccsccccccccscccccccccccccscccccccccccc" />
        <path
           d="m 136.54665,267.74387 q -0.0137,1.98115 -1.5049,4.56167 -1.49114,2.58051 -4.19652,4.44138 -2.70503,1.81007 -6.15935,1.78609 -3.40352,-0.0236 -5.01603,-1.91445 -1.61252,-1.89084 -1.59313,-4.68477 0.0169,-2.43835 0.90554,-6.03906 0.93941,-3.60037 2.58471,-6.43382 0.10301,-0.20249 0.82301,-1.46752 0.77115,-1.31548 1.69011,-1.96952 0.91931,-0.70484 1.93529,-0.69779 0.45719,0.003 0.81101,0.25964 0.40498,0.20601 0.40252,0.5616 -7.1e-4,0.1016 -0.30832,0.50588 -0.25646,0.35383 -0.41027,0.55596 -1.74161,2.07077 -2.82249,4.09531 -1.44035,2.58087 -2.27076,5.11517 -0.77961,2.53465 -0.80041,5.53177 -0.0279,4.01311 4.84883,4.04695 2.28595,0.0159 4.22547,-1.2915 1.99032,-1.30702 3.17173,-3.17846 1.18177,-1.92225 1.1927,-3.49701 0.0123,-1.77796 -1.14686,-3.10684 -1.15921,-1.32887 -3.18094,-2.81614 -1.31406,-0.97434 -1.91942,-1.58816 -0.60535,-0.61382 -0.60253,-1.02021 0.004,-0.60958 0.87028,-0.95918 0.86639,-0.4004 2.03477,-0.39229 0.66038,0.005 0.86287,0.10759 0.20284,0.0522 0.20143,0.25541 -7e-4,0.1016 -0.20566,0.35418 -0.15381,0.20214 -0.15486,0.35453 -0.001,0.1524 1.00892,1.02303 2.02032,1.69046 3.3799,3.42714 1.35958,1.73668 1.34336,4.07342 z"
           style="font-style:normal;font-variant:normal;font-weight:normal;font-stretch:normal;font-size:50.79999924px;line-height:18.20000076;font-family:'Ink Free';-inkscape-font-specification:'Ink Free';fill:#e67235;fill-opacity:1;stroke:#ffffff;stroke-opacity:1"
           id="path6530" />
        <path
           d="m 145.60266,279.00644 q -0.0921,0.49958 -0.79686,0.67955 -0.70472,0.17997 -1.50404,0.0326 -0.5995,-0.11056 -0.89106,-1.61072 -0.23239,-1.5409 0.30198,-4.43844 1.09106,-5.63598 2.6651,-13.61076 1.624,-7.96557 2.47019,-11.9937 0.31714,-1.43956 0.99709,-2.60558 0.7299,-1.1568 1.92889,-0.93569 0.39966,0.0737 0.41665,0.54176 0.0762,0.4273 -0.14495,1.62628 -0.009,0.0499 -0.11445,0.34049 -0.0461,0.24978 -0.17505,0.94919 -3.32233,12.97299 -5.62565,25.46238 -0.29482,1.59864 0.0729,3.5261 0.41768,1.93667 0.39925,2.03658 z"
           style="font-style:normal;font-variant:normal;font-weight:normal;font-stretch:normal;font-size:50.79999924px;line-height:18.20000076;font-family:'Ink Free';-inkscape-font-specification:'Ink Free';fill:#e67235;fill-opacity:1;stroke:#ffffff;stroke-opacity:1"
           id="path6532" />
        <path
           d="m 161.28995,251.45028 q -0.18261,0.7398 -1.81016,0.33805 -0.83844,-0.20695 -1.55575,-1.11656 -0.668,-0.89744 -0.55844,-1.34131 0.13392,-0.54252 0.74886,-0.91398 0.66425,-0.35928 1.20677,-0.22537 0,0 0.30871,0.23318 0.37021,0.19603 0.7295,0.86029 0.29716,0.49195 0.6321,1.25485 0.33493,0.76289 0.29841,0.91085 z m -6.42447,31.32645 q -0.12174,0.49319 -0.62649,0.63022 -0.4676,0.19853 -0.99794,0.0153 -0.6783,-0.21976 -0.48788,-2.47504 0.23974,-2.24312 1.3919,-8.39466 0.78882,-4.04359 1.57826,-7.87773 0.80161,-3.88346 1.2636,-5.96706 0.13392,-0.54252 0.34275,-0.75259 0.27032,-0.24722 0.76352,-0.12548 1.13435,0.28 1.19896,1.29012 0.0646,1.01012 -0.59278,3.67338 l -1.48586,5.80755 q -1.22957,4.98129 -1.67627,8.06284 -0.0365,0.14796 -0.33526,3.26602 -0.16607,2.15665 -0.33651,2.84713 z"
           style="font-style:normal;font-variant:normal;font-weight:normal;font-stretch:normal;font-size:50.79999924px;line-height:18.20000076;font-family:'Ink Free';-inkscape-font-specification:'Ink Free';fill:#e67235;fill-opacity:1;stroke:#ffffff;stroke-opacity:1"
           id="path6534" />
        <path
           d="m 182.75781,289.36364 q -0.11024,0.59955 -0.58343,0.92577 -0.48237,0.37617 -1.13189,0.25675 -0.49962,-0.0919 -0.80343,-0.40598 -0.31299,-0.26415 -0.2395,-0.66385 l 0.73377,-3.42904 q 1.3797,-6.09946 2.09622,-9.99654 1.04722,-5.69573 0.6612,-8.09102 -0.37684,-2.44526 -1.42606,-2.63817 -2.34823,-0.43174 -7.23675,6.21057 -4.87933,6.59235 -9.75687,14.57962 -0.37842,0.65355 -0.9475,1.22039 -0.51912,0.57602 -0.96879,0.49334 -1.09917,-0.20209 -0.97057,-0.90157 0.56036,-3.04771 1.84463,-11.43739 1.29346,-8.43963 1.63044,-11.1152 1.19465,-9.02597 1.18077,-11.19789 -0.0139,-2.17191 0.0137,-2.3218 0.0919,-0.49963 0.68738,-0.64839 0.59552,-0.14877 1.44489,0.007 0.69947,0.1286 0.41133,3.38132 -0.22899,3.21194 -0.98852,8.18579 l -0.20725,1.40814 q -0.18485,1.56721 -1.48525,8.92089 -1.29121,7.30372 -1.92505,10.75113 3.35468,-5.32313 6.17993,-9.45231 2.87522,-4.12 6.23975,-7.53021 3.37372,-3.46018 5.62203,-3.0468 1.89858,0.34907 2.60969,3.78552 0.7203,3.38647 -0.43715,9.68175 -0.51442,2.79791 -1.33311,7.81253 z"
           style="font-style:normal;font-variant:normal;font-weight:normal;font-stretch:normal;font-size:50.79999924px;line-height:18.20000076;font-family:'Ink Free';-inkscape-font-specification:'Ink Free';fill:#e67235;fill-opacity:1;stroke:#ffffff;stroke-opacity:1"
           id="path6536" />
        <path
           d="m 191.93935,256.91859 q 0.0134,0.76188 -1.66273,0.79138 -0.86346,0.0152 -1.79024,-0.6798 -0.87598,-0.69589 -0.88403,-1.15302 -0.01,-0.55871 0.48915,-1.07557 0.54977,-0.51776 1.10849,-0.52759 0,0 0.35823,0.14612 0.40812,0.0944 0.92588,0.6442 0.41348,0.39919 0.93303,1.05055 0.51954,0.65135 0.52222,0.80373 z m 1.83212,31.9259 q 0.009,0.50792 -0.44372,0.76993 -0.40097,0.3119 -0.96058,0.27095 -0.71198,-0.0383 -1.10686,-2.26688 -0.34409,-2.22949 -0.8096,-8.47066 -0.27558,-4.11059 -0.49679,-8.0189 -0.22211,-3.9591 -0.31045,-6.09148 -0.01,-0.55871 0.13808,-0.81536 0.1978,-0.30832 0.70572,-0.31726 1.16822,-0.0206 1.48996,0.93912 0.32174,0.95969 0.37001,3.70246 l 0.0547,5.99437 q 0.0903,5.13 0.44958,8.22296 0.003,0.15238 0.51434,3.24265 0.39309,2.12701 0.40561,2.8381 z"
           style="font-style:normal;font-variant:normal;font-weight:normal;font-stretch:normal;font-size:50.79999924px;line-height:18.20000076;font-family:'Ink Free';-inkscape-font-specification:'Ink Free';fill:#e67235;fill-opacity:1;stroke:#ffffff;stroke-opacity:1"
           id="path6538" />
        <path
           d="m 214.83429,265.17359 q 0.0582,0.45348 -0.51919,1.14221 -0.53348,0.63187 -0.98696,0.69009 -0.35271,0.0453 -0.74422,-0.21177 -0.34113,-0.26351 -0.81538,-0.76601 -0.41738,-0.45859 -1.0673,-0.73367 -0.59953,-0.28156 -1.20417,-0.20394 -1.46121,0.18759 -3.43208,4.3843 -1.97735,4.14632 -3.59518,10.29517 0.19915,1.15242 0.52632,2.90301 0.37755,1.74412 0.5379,2.59423 l 0.40989,1.99605 q 0.0906,0.70541 -0.14708,1.24809 -0.23116,0.59306 -1.03735,0.69655 -0.85657,0.10997 -1.39958,-2.12509 -0.54947,-2.28543 -1.16261,-6.66259 -0.19269,-1.10204 -0.50827,-3.16141 -0.26521,-2.06585 -0.73468,-4.92495 -0.70743,-4.31383 -0.94676,-6.17813 -0.14878,-1.15889 1.26205,-1.34001 0.85657,-0.10996 1.10475,0.62644 0.29211,0.67953 0.55731,2.74538 l 1.02847,8.01146 q 1.01353,-4.07382 2.41483,-7.12185 1.4013,-3.04804 2.87647,-4.7227 1.51909,-1.73152 2.82914,-1.8997 1.1085,-0.1423 2.18092,0.23219 1.07241,0.3745 1.78054,1.10307 0.70167,0.67817 0.79222,1.38358 z"
           style="font-style:normal;font-variant:normal;font-weight:normal;font-stretch:normal;font-size:50.79999924px;line-height:18.20000076;font-family:'Ink Free';-inkscape-font-specification:'Ink Free';fill:#e67235;fill-opacity:1;stroke:#ffffff;stroke-opacity:1"
           id="path6540" />
        <path
           d="m 235.51838,267.48447 q 0.33893,-0.10762 0.56953,0.61865 0.27672,0.87153 -0.0928,4.2401 -0.3211,3.35321 -2.13627,6.7011 -1.76674,3.33252 -5.54335,4.53163 -3.09875,0.98389 -5.79565,-0.29179 -2.69691,-1.27567 -3.97288,-5.29436 -1.19912,-3.77661 -0.62444,-8.00981 0.55931,-4.28162 2.62964,-7.49734 2.05496,-3.26413 5.05687,-4.21727 1.79147,-0.56881 3.26326,-0.13003 1.50484,0.37498 1.98142,1.87594 0.53806,1.69463 -0.89134,3.90735 -1.38099,2.19735 -4.04699,4.37632 -2.66601,2.17896 -5.74091,3.74157 0.12616,2.41171 0.80258,4.5421 0.89165,2.80824 2.69088,3.94254 1.84764,1.11893 4.31696,0.33489 3.72819,-1.18374 5.20673,-4.58464 1.47853,-3.40091 1.96715,-7.2337 0.0353,-0.22442 0.10833,-0.83388 0.0576,-0.65788 0.25128,-0.71937 z m -6.67438,-6.24879 q -0.24597,-0.77468 -1.20744,-0.9491 -0.91304,-0.18979 -1.97824,0.14842 -1.83988,0.58418 -3.15018,2.3327 -1.3103,1.74851 -1.93427,3.8121 -0.57555,2.04821 -0.4994,3.46311 2.15036,-0.94926 4.29684,-2.75007 2.14648,-1.80081 3.40836,-3.53395 1.3103,-1.74852 1.06433,-2.52321 z"
           style="font-style:normal;font-variant:normal;font-weight:normal;font-stretch:normal;font-size:50.79999924px;line-height:18.20000076;font-family:'Ink Free';-inkscape-font-specification:'Ink Free';fill:#e67235;fill-opacity:1;stroke:#ffffff;stroke-opacity:1"
           id="path6542" />
      </g>
    </g>
    <path
       style="fill:none;stroke:none;stroke-width:0.22217117px;stroke-linecap:butt;stroke-linejoin:miter;stroke-opacity:1"
       d="m 82.586284,287.21614 c 15.08447,-3.42369 32.192976,-10.56484 49.310076,-8.73344 18.81148,1.28477 31.16452,8.12444 54.65777,10.24105 26.04256,0.41529 45.78382,-5.13247 62.2738,-13.75697"
       id="path14"
       inkscape:connector-curvature="0"
       sodipodi:nodetypes="cccc" />
    <path
       sodipodi:nodetypes="cccc"
       inkscape:connector-curvature="0"
       id="path6544"
       d="m 82.586284,287.21614 c 15.08447,-3.42369 32.192976,-10.56484 49.310076,-8.73344 18.81148,1.28477 31.16452,8.12444 54.65777,10.24105 26.04256,0.41529 45.78382,-5.13247 62.2738,-13.75697"
       style="fill:none;stroke:none;stroke-width:0.22217117px;stroke-linecap:butt;stroke-linejoin:miter;stroke-opacity:1" />
  </g>
</svg>
