<?xml version="1.0" encoding="UTF-8" standalone="no"?>
<!-- Created with Inkscape (http://www.inkscape.org/) -->

<svg
   xmlns:dc="http://purl.org/dc/elements/1.1/"
   xmlns:cc="http://creativecommons.org/ns#"
   xmlns:rdf="http://www.w3.org/1999/02/22-rdf-syntax-ns#"
   xmlns:svg="http://www.w3.org/2000/svg"
   xmlns="http://www.w3.org/2000/svg"
   xmlns:sodipodi="http://sodipodi.sourceforge.net/DTD/sodipodi-0.dtd"
   xmlns:inkscape="http://www.inkscape.org/namespaces/inkscape"
   version="1.1"
   id="svg1974"
   width="1188"
   height="1280"
   viewBox="0 0 1188 1280"
   sodipodi:docname="tv.svg"
   inkscape:version="0.92.4 (5da689c313, 2019-01-14)">
  <metadata
     id="metadata1980">
    <rdf:RDF>
      <cc:Work
         rdf:about="">
        <dc:format>image/svg+xml</dc:format>
        <dc:type
           rdf:resource="http://purl.org/dc/dcmitype/StillImage" />
        <dc:title></dc:title>
      </cc:Work>
    </rdf:RDF>
  </metadata>
  <defs
     id="defs1978" />
  <sodipodi:namedview
     pagecolor="#ffffff"
     bordercolor="#666666"
     borderopacity="1"
     objecttolerance="10"
     gridtolerance="10"
     guidetolerance="10"
     inkscape:pageopacity="0"
     inkscape:pageshadow="2"
     inkscape:window-width="1920"
     inkscape:window-height="986"
     id="namedview1976"
     showgrid="false"
     inkscape:zoom="0.26074563"
     inkscape:cx="-491.93749"
     inkscape:cy="1250.0147"
     inkscape:window-x="-11"
     inkscape:window-y="-11"
     inkscape:window-maximized="1"
     inkscape:current-layer="svg1974" />
  <path
     style="fill:#000000;fill-opacity:0.1254902"
     d="m 1455.2629,1271.0797 c -0.2072,-0.6875 -0.929,-9.2375 -1.604,-19 l -1.2274,-17.75 H 1013.5669 574.70226 v 3.6978 c 0,2.0337 -0.52039,9.9087 -1.15641,17.5 l -1.15642,13.8022 h -24.29827 -24.29828 l -0.50655,-3.25 c -0.2786,-1.7875 -0.76486,-7.3 -1.08057,-12.25 -0.31571,-4.95 -0.83209,-11.3392 -1.14751,-14.1981 l -0.57348,-5.1981 -40.14125,-0.3019 c -35.52064,-0.2672 -40.49829,-0.4975 -43.24282,-2.0008 -4.38214,-2.4004 -9.11853,-8.1111 -10.39599,-12.5345 -0.77737,-2.6918 -1.00426,-110.3914 -0.79511,-377.4305 l 0.29265,-373.66389 3.01338,-4.33611 c 1.76178,-2.53513 4.86104,-5.27064 7.46189,-6.58611 l 4.44851,-2.25 h 578.57627 578.5762 l 4.4485,2.25 c 2.6009,1.31547 5.7001,4.05098 7.4619,6.58611 l 3.0134,4.33611 0.2927,373.66389 c 0.2091,267.0391 -0.018,374.7387 -0.7952,377.4305 -1.2774,4.4234 -6.0138,10.1341 -10.3959,12.5345 -2.7683,1.5163 -8.0725,1.7308 -49.3516,1.9954 l -46.25,0.2965 v 3.7035 c 0,2.0369 -0.5318,10.566 -1.187,18.9535 l -1.1913,15.25 h -24.3445 c -18.6079,0 -24.4331,-0.2945 -24.721,-1.25 z m -912.43462,-131 c -13.33004,-7.1606 -23.23152,-20.0226 -27.12094,-35.2301 -1.98108,-7.746 -2.00488,-10.8699 -1.98772,-260.92987 0.0146,-213.26491 0.23801,-254.13099 1.41958,-259.70532 2.73706,-12.91264 11.41647,-26.31353 21.42133,-33.07423 l 4.64173,-3.13661 -2.5,2.84063 -2.5,2.84063 3.26176,-2.25403 c 1.79396,-1.23973 3.05126,-2.59463 2.79399,-3.01091 -0.25728,-0.41628 0.0837,-0.75687 0.75783,-0.75687 0.67408,0 3.01678,-1.17411 5.20601,-2.60913 2.18923,-1.43503 7.58041,-3.87253 11.98041,-5.41667 l 8,-2.80753 332.76483,-0.26025 c 292.73091,-0.22894 333.63101,-0.0796 339.96481,1.24099 20.8582,4.34907 36.1696,18.20066 43.6842,39.51926 1.4296,4.05594 1.6121,29.68795 1.8494,259.75042 0.2921,283.24979 0.7698,262.60569 -6.4154,277.24959 -2.5684,5.2347 -5.7542,9.5802 -10.5474,14.387 -3.7771,3.7878 -5.7433,6.1503 -4.3692,5.25 1.3741,-0.9004 3.0521,-1.637 3.7289,-1.637 0.6767,0 2.605,-1.2375 4.2851,-2.75 l 3.0548,-2.75 -3,3.3345 c -1.65,1.834 -5.2363,4.984 -7.9696,7 -4.0997,3.0239 -6.1127,3.7784 -11.5,4.3103 -4.499,0.4442 -2.3057,0.5997 7.0503,0.5 13.2311,-0.1411 13.7054,-0.222 18.4224,-3.1448 3.1831,-1.9723 5.6412,-4.5141 7.176,-7.42 l 2.3343,-4.4201 -0.2567,-289.57994 -0.2567,-289.57997 -2.4471,-3.61571 c -3.1413,-4.6414 -7.3984,-7.51357 -13.0529,-8.80648 -6.5522,-1.49813 -741.04222,-1.47657 -748.02966,0.022 -6.12216,1.31297 -11.49972,5.65593 -14.1054,11.39165 -1.74773,3.84717 -1.82194,15.58744 -1.84302,291.56224 l -0.022,287.55361 2.48293,4.9464 c 2.65292,5.2849 7.43026,9.2041 12.76165,10.4691 1.79048,0.4249 7.7137,0.8185 13.1627,0.8748 l 9.90729,0.1024 z m 533.20512,1.5 c -91.94289,-0.1407 -242.69289,-0.1407 -335.00001,0 -92.30712,0.1407 -17.08113,0.2559 167.16887,0.2559 184.25004,0 259.77404,-0.1152 167.83114,-0.2559 z m 165.3773,-11 c 0.3551,-0.9625 0.9035,-1.975 1.2186,-2.25 0.3151,-0.275 1.6869,-2.75 3.0485,-5.5 1.3615,-2.75 2.7144,-5.225 3.0065,-5.5 0.9938,-0.9359 10.0265,-19 9.5007,-19 -0.2879,0 0.3858,-1.7821 1.4969,-3.9602 1.1112,-2.1781 2.0204,-4.8406 2.0204,-5.9166 0,-1.0761 0.4381,-2.1065 0.9736,-2.2899 0.6275,-0.2148 1.0142,-86.72459 1.0877,-243.34364 0.1192,-253.73075 0.2353,-246.08501 -3.7997,-250.3111 -0.6939,-0.72678 -1.2616,-1.85638 -1.2616,-2.51022 0,-0.65383 -1.125,-2.40205 -2.5,-3.88492 -1.375,-1.48288 -2.5,-3.06549 -2.5,-3.51692 0,-0.45144 -1.35,-2.29885 -3,-4.10537 -1.65,-1.80652 -3,-3.4368 -3,-3.62286 0,-0.18605 -1.62,-1.95828 -3.6,-3.93828 -2.2081,-2.20803 -4.564,-3.6 -6.0932,-3.6 -2.4252,0 -2.3755,0.14286 1.8287,5.25 l 4.3218,5.25 -7.1056,-6.61626 c -3.9081,-3.63894 -9.5825,-7.82804 -12.6097,-9.30911 -12.1654,-5.95198 11.6966,-5.55089 -330.24204,-5.55089 -269.0079,0 -314.76931,0.20476 -319.36904,1.42902 -18.76984,4.99577 -34.1737,20.98833 -38.09147,39.54724 -0.85841,4.06637 -1.08004,41.99246 -0.85027,145.5 l 0.31078,140 2.25,5.96534 c 2.58231,6.8464 2.58509,6.85979 1.25,6.03466 -0.664,-0.41038 -1,31.48962 -1,94.94102 0,52.55739 0.3596,95.55899 0.79911,95.55899 0.43951,0 1.4064,1.6875 2.14863,3.75 0.74224,2.0625 2.18264,4.4778 3.20089,5.3673 1.01825,0.8895 1.85137,1.9334 1.85137,2.3198 0,1.3683 6.48896,10.1153 10.21778,13.7733 2.08022,2.0407 3.78222,4.1744 3.78222,4.7415 0,0.5671 0.9,1.5932 2,2.2802 1.1,0.6869 2,1.5503 2,1.9185 0,0.3683 2.41574,3.1838 5.36831,6.2567 l 5.3683,5.5871 175.3817,0.2556 c 96.45993,0.1406 246.15831,0.3669 332.66303,0.5028 149.0086,0.2342 157.3154,0.1552 157.9271,-1.5028 z m 228.7916,-270.908 c 14.6934,-3.70367 30.2547,-15.81362 37.8346,-29.44322 13.2984,-23.91238 9.0957,-53.47276 -10.384,-73.03655 -12.1321,-12.18455 -26.2715,-18.06224 -43.4506,-18.06224 -10.8464,0 -16.946,1.42678 -27.4228,6.41457 -6.6378,3.16005 -10.0347,5.62868 -16.0278,11.64767 -35.9502,36.10546 -15.5492,96.05897 35.4506,104.18046 6.2107,0.98903 16.113,0.28733 24,-1.70069 z m -34.3019,-13.96586 c -3.7379,-1.89757 -6.1981,-5.91764 -6.1981,-10.12799 0,-2.58591 4.0502,-14.28416 18.8379,-54.40974 5.9642,-16.18366 6.6286,-17.35738 11.0001,-19.43176 4.4768,-2.12442 9.0638,-1.16234 12.7368,2.67146 2.3202,2.42176 2.9106,3.91859 2.8545,7.23754 -0.1072,6.3423 -22.7777,68.35388 -26.3092,71.96469 -3.4394,3.51668 -8.5048,4.33823 -12.922,2.0958 z m 32.8019,-151.56828 c 2.475,-0.56967 8.325,-2.84966 13,-5.06664 20.3648,-9.65739 34.03,-31.63233 33.9852,-54.65119 -0.046,-23.38464 -13.5378,-45.16266 -33.9852,-54.8559 -10.4862,-4.97107 -17.0647,-6.53414 -27.5,-6.53414 -10.4353,0 -17.0138,1.56307 -27.5,6.53414 -15.7593,7.47079 -28.3313,23.26797 -32.443,40.76586 -6.4407,27.40849 7.4382,56.82768 32.443,68.76995 7.4616,3.56365 12.487,5.0797 22,6.63687 3.3953,0.55577 14.4934,-0.3315 20,-1.59895 z m -26.632,-13.36898 c -1.5328,-2.33934 -1.6163,-6.16837 -0.9649,-44.21756 0.4612,-26.94295 1.0891,-42.10942 1.7775,-42.93889 1.5764,-1.89954 18.1742,-1.76475 19.7721,0.16057 0.8661,1.04353 1.3583,12.93044 1.7783,42.93775 0.7033,50.26606 1.621,46.61924 -11.731,46.61924 -8.5043,0 -9.0382,-0.1286 -10.632,-2.56111 z M 821.17668,442.79161 c 3.5025,-7.91977 12.10614,-20.77049 19.85244,-29.65237 17.60107,-20.1813 47.21777,-39.66197 79.94855,-52.58692 l 9.77542,-3.86019 -144.33931,-96.22144 -144.33932,-96.22144 -5.4361,2.53045 c -14.59985,6.79608 -32.11261,-0.0558 -38.62451,-15.11181 -2.52638,-5.84118 -2.28499,-16.72665 0.49803,-22.45861 10.75793,-22.15728 41.13923,-22.29293 52.15656,-0.23287 1.82228,3.64877 2.37465,6.43706 2.42566,12.24443 l 0.066,7.51977 150.81291,100.33533 150.81291,100.33532 11.20815,-2.50867 c 27.19313,-6.08654 50.67803,-8.62818 79.85913,-8.64272 l 19.8091,-0.01 144.5952,-152.61856 c 121.7717,-128.528533 144.4888,-152.948572 143.921,-154.710024 -1.84,-5.708312 -1.6365,-14.14793 0.4766,-19.765846 8.7841,-23.35451 40.3085,-25.043584 51.8909,-2.780315 3.1276,6.011777 3.3281,6.969069 2.9228,13.954564 -0.5215,8.987664 -2.7746,13.909177 -8.9909,19.639163 -6.2897,5.79769 -11.9293,7.703643 -20.9642,7.085027 -4.0213,-0.275337 -8.2476,-0.808435 -9.3917,-1.184661 -1.779,-0.584948 -21.2602,19.572501 -134.4702,139.138212 -72.8144,76.90224 -135.2686,142.83794 -138.787,146.52378 -7.1593,7.49998 -7.3629,6.99342 3.3375,8.29965 8.0338,0.98072 24.9424,4.32287 35.8762,7.09127 60.5061,15.32003 108.3367,45.89821 131.3001,83.94045 2.6471,4.38527 7.3237,14.02382 7.3237,15.09423 0,0.20508 -102.5944,0.37288 -227.9874,0.37288 H 818.72748 Z m 205.52562,-59.98294 c 67.925,-0.39332 125.75,-1.01026 128.5,-1.371 4.3245,-0.56728 5.743,-0.26298 10.5,2.25255 8.541,4.51656 4.5188,1.32739 -4.8503,-3.84573 -25.5171,-14.08918 -53.3612,-23.35134 -86.2363,-28.68602 -11.251,-1.8257 -17.6857,-2.18689 -39.9134,-2.24039 -23.0661,-0.0555 -28.379,0.23627 -41.00004,2.25183 -34.15738,5.45486 -65.28385,16.19447 -91.25,31.48411 -10.23865,6.02883 -13.51098,8.7785 -4.5,3.78127 l 5.25,-2.91151 z"
     id="path1984"
     inkscape:connector-curvature="0"
     sodipodi:nodetypes="cccccsccccsscccccscscccccscsccscsccsccscssscccccscscscsscccscccccccccccsccsscccccssssscsscscscssscsssssscsssssscscsscsscscsccsscsccscssscscccsccsscssssssscccccscssscccssssccccsccscsscsscscsscsscsscssssssccs" />
</svg>
