<?xml version="1.0" encoding="UTF-8" standalone="no"?>
<!-- Created with Inkscape (http://www.inkscape.org/) -->

<svg
   xmlns:dc="http://purl.org/dc/elements/1.1/"
   xmlns:cc="http://creativecommons.org/ns#"
   xmlns:rdf="http://www.w3.org/1999/02/22-rdf-syntax-ns#"
   xmlns:svg="http://www.w3.org/2000/svg"
   xmlns="http://www.w3.org/2000/svg"
   xmlns:sodipodi="http://sodipodi.sourceforge.net/DTD/sodipodi-0.dtd"
   xmlns:inkscape="http://www.inkscape.org/namespaces/inkscape"
   width="154.8327mm"
   height="251.61656mm"
   viewBox="0 0 154.8327 251.61656"
   version="1.1"
   id="svg1423"
   inkscape:version="0.92.4 (5da689c313, 2019-01-14)"
   sodipodi:docname="wheelchair.svg">
  <defs
     id="defs1417" />
  <sodipodi:namedview
     id="base"
     pagecolor="#ffffff"
     bordercolor="#666666"
     borderopacity="1.0"
     inkscape:pageopacity="0.0"
     inkscape:pageshadow="2"
     inkscape:zoom="0.35"
     inkscape:cx="-414.54561"
     inkscape:cy="648.35284"
     inkscape:document-units="mm"
     inkscape:current-layer="layer1"
     showgrid="false"
     fit-margin-top="0"
     fit-margin-left="0"
     fit-margin-right="0"
     fit-margin-bottom="0"
     inkscape:window-width="1920"
     inkscape:window-height="986"
     inkscape:window-x="-11"
     inkscape:window-y="-11"
     inkscape:window-maximized="1" />
  <metadata
     id="metadata1420">
    <rdf:RDF>
      <cc:Work
         rdf:about="">
        <dc:format>image/svg+xml</dc:format>
        <dc:type
           rdf:resource="http://purl.org/dc/dcmitype/StillImage" />
        <dc:title></dc:title>
      </cc:Work>
    </rdf:RDF>
  </metadata>
  <g
     inkscape:label="Layer 1"
     inkscape:groupmode="layer"
     id="layer1"
     transform="translate(-89.271145,-68.760135)">
    <path
       style="fill:#000000;fill-opacity:0.1254902;stroke-width:0.18311116"
       d="m 104.97467,338.2641 c -2.25387,-0.58971 -4.08234,-2.04628 -4.35304,-3.46765 -0.067,-0.35172 0.16813,-1.71996 0.66129,-3.84846 2.5152,-10.85551 7.49937,-32.2838 8.9554,-38.50171 0.93707,-4.00167 2.36626,-10.10742 3.176,-13.56833 5.01599,-21.439 9.8139,-41.48931 10.94032,-45.7194 0.80343,-3.01711 2.52923,-7.12046 3.45929,-8.22507 0.89161,-1.05892 2.40469,-1.9001 3.9631,-2.20324 0.91215,-0.17744 5.06735,-0.18145 17.6739,-0.0171 9.06478,0.11819 18.61066,0.26995 21.21307,0.33723 l 4.73168,0.12233 v -10.24614 -10.24614 l -21.78276,-0.0499 c -19.24878,-0.0441 -21.77849,-0.0842 -21.74589,-0.34488 0.74904,-5.98905 0.93174,-6.76867 2.03788,-8.6961 0.82396,-1.4357 1.9155,-2.60099 3.62116,-3.86576 l 1.09212,-0.80983 h 18.30349 18.30349 v -20.65379 c 0,-22.64095 -0.0642,-21.24591 1.04436,-22.70585 2.5814,-3.39971 10.40903,-5.40333 18.82016,-4.81735 7.36643,0.51321 12.74988,2.80928 14.04672,5.99101 l 0.36145,0.88676 v 42.05218 c 0,41.23428 -0.007,42.08173 -0.33684,43.57104 -0.45257,2.0407 -1.20526,3.60247 -2.53367,5.25718 -2.08201,2.59339 -4.3715,4.00565 -8.31365,5.12824 l -1.5189,0.43253 -29.54797,0.0621 c -23.13237,0.0486 -29.56311,0.11445 -29.61769,0.30311 -0.0384,0.13253 -1.53789,5.68306 -3.33233,12.3345 -1.79442,6.65143 -4.75238,17.60196 -6.57325,24.33452 -1.82085,6.73255 -4.81246,17.79369 -6.64801,24.58031 -1.83555,6.78663 -4.37659,16.1886 -5.64674,20.89327 -1.27017,4.70468 -2.4647,8.85 -2.65452,9.21184 -1.12064,2.13633 -4.73643,3.28995 -7.79962,2.48849 z m 93.09896,0.0885 c -16.17874,-0.98362 -30.9361,-10.07921 -40.72398,-25.09991 -5.75002,-8.8241 -9.1727,-18.58652 -10.53496,-30.04861 -0.42593,-3.58371 -0.42593,-11.75441 0,-15.33812 0.55746,-4.69054 1.67107,-10.11954 2.78316,-13.56834 l 0.31704,-0.98321 6.34623,-0.0516 c 3.49043,-0.0284 6.34625,-0.006 6.34625,0.0489 0,0.0553 -0.31352,0.90344 -0.69671,1.88484 -1.53724,3.93722 -2.72949,8.60292 -3.31282,12.96435 -0.38281,2.86218 -0.51678,8.81676 -0.26828,11.92397 0.73602,9.20268 3.60042,17.69697 8.56402,25.39651 2.45442,3.80727 7.35277,9.00911 11.05977,11.74498 13.91856,10.27234 32.11935,10.27234 46.03794,0 3.70996,-2.73807 8.57169,-7.90273 11.05606,-11.74498 4.84561,-7.49407 7.56783,-15.34847 8.49076,-24.4984 0.3303,-3.27467 0.23599,-9.66841 -0.18914,-12.82208 -1.16031,-8.60726 -4.32148,-16.903 -9.02941,-23.69543 -2.4223,-3.49479 -6.45989,-7.69636 -9.93733,-10.34084 -1.74843,-1.32965 -5.74338,-3.75672 -7.254,-4.40707 l -0.80993,-0.34868 v -7.14014 -7.14014 l 0.89518,0.30367 c 3.27011,1.10929 8.49911,3.83073 11.80788,6.14542 13.64475,9.54538 22.88289,25.02446 25.65425,42.98532 0.62329,4.03947 0.77401,6.22154 0.76732,11.11031 -0.009,6.20333 -0.44021,10.21231 -1.70925,15.87196 -5.06721,22.59877 -21.18426,40.49478 -40.93665,45.45517 -3.75571,0.94315 -5.44624,1.16896 -11.05741,1.47694 -0.65647,0.036 -2.30617,-0.002 -3.66599,-0.0848 z m -9.20759,-210.04077 c -7.23713,-0.67922 -13.5565,-6.77706 -15.60657,-15.05946 -0.81979,-3.3119 -0.81796,-7.76784 0.005,-11.15609 2.78318,-11.465097 13.39164,-17.918287 23.15475,-14.085187 8.95394,3.5154 14.05291,14.671047 11.5282,25.221577 -0.99276,4.14853 -3.3979,8.2678 -6.33725,10.85373 -3.73009,3.28157 -7.93723,4.67653 -12.74368,4.22543 z"
       id="path1406"
       inkscape:connector-curvature="0" />
  </g>
</svg>
